<?xml version="1.0" encoding="utf-8"?>
<!-- Generator: Adobe Illustrator 22.0.0, SVG Export Plug-In . SVG Version: 6.00 Build 0)  -->
<svg version="1.1" id="Layer_1" xmlns="http://www.w3.org/2000/svg" xmlns:xlink="http://www.w3.org/1999/xlink" x="0px" y="0px"
	 viewBox="0 0 1920 514" style="enable-background:new 0 0 1920 514;" xml:space="preserve">
<style type="text/css">
	.st0{fill:#8DC63F;}
	.st1{fill:#363F44;}
</style>
<g>
	<path class="st0" d="M513.5,257c0-141.5-114.7-256.3-256.3-256.3S1,115.5,1,257s114.7,256.3,256.3,256.3c35.4,0,69.2-7.2,99.9-20.2
		l-83.3-83.2c-5.4,0.6-11,0.9-16.6,0.9c-85.1,0-154.1-69-154.1-154.1s69-154.1,154.1-154.1s154.1,68.9,154.1,154
		c0,24.6-5.8,47.7-16,68.3H256.6L434,501.9h138.9L470.2,399.6C497.6,358.8,513.5,309.8,513.5,257z"/>
	<path class="st1" d="M1066.8,170c-48.8,0-88.8,15.5-119.9,46.6c-31.1,31.1-46.6,71-46.6,119.9c0,48.8,15.5,88.8,46.6,119.9
		c31.1,31.1,71,46.6,119.9,46.6c66.6,0,101.6-20.3,136.5-49.9l-53.3-53.3c-24.4,17.8-52.2,26.6-83.2,26.6c-17.8,0-33.3-5-46.6-15
		c-13.3-10-21.1-23.6-23.3-41.7h229.8v-33.2c0-48.8-14.5-88.8-43.3-119.9S1115.6,170,1066.8,170z M1000.2,303.1
		c0-17.7,6.7-31.6,20-41.6c13.3-10,28.9-15,46.6-15c17.8,0,33.3,5,46.6,15c13.3,10,20,23.9,20,41.6H1000.2z"/>
	<rect x="1284.2" y="3.4" class="st1" width="93.3" height="499.8"/>
	<path class="st1" d="M1598.1,3.5c-37.7,0-67.7,10.5-89.9,31.6c-22.2,21.1-33.3,48.3-33.3,81.6v49.1h-49.5V241h49.5v262.1h93.6V241
		h50.2v-75.3h-50.2v-35.7c0-17.8,3.7-30.2,11.2-37.5c7.4-7.2,17.1-10.8,28.8-10.8c16,0,27.1,3.4,33.3,10.3l49.6-55.3
		C1669.2,14.6,1638.1,3.5,1598.1,3.5z"/>
	<path class="st1" d="M1866.6,420.6c-7.5,3.8-14.7,4.1-17.6,4.1c-11.8,0-21.2-3.6-28.7-10.8c-7.4-7.2-10.9-19.7-10.9-37.5V241h49.5
		v-75.3h-49.5V95.1h-93.9v70.7h-50.2V241h50.2v148.7c0,33.3,11.1,60.5,33.3,81.6c22.2,21.1,52.1,31.6,89.8,31.6
		c20.6,0,38.6-5.8,55-15.6c7.1-4.3,17.1-10.9,25.5-21.4L1866.6,420.6z"/>
	<path class="st1" d="M618.3,1.1H416.2c38.4,21.9,71.3,52.7,96.1,89.1c1.3,1.8,6.4,9.3,7.6,11.9h98.4c88.9,0,133.4,49.2,133.6,149.4
		c-0.2,100.2-44.8,149.7-133.6,149.7h-79.9l101,100.8c155.6-0.2,212.7-83.4,212.7-250.2C852.1,84.5,774.1,1.1,618.3,1.1z"/>
</g>
</svg>
